<?xml version="1.0" standalone="no"?>
<!DOCTYPE svg PUBLIC "-//W3C//DTD SVG 20010904//EN"
 "http://www.w3.org/TR/2001/REC-SVG-20010904/DTD/svg10.dtd">
<svg version="1.0" xmlns="http://www.w3.org/2000/svg"
 width="1805.000000pt" height="1805.000000pt" viewBox="0 0 1805.000000 1805.000000"
 preserveAspectRatio="xMidYMid meet">
<metadata>
Created by potrace 1.11, written by Peter Selinger 2001-2013
</metadata>
<g transform="translate(0.000000,1805.000000) scale(0.100000,-0.100000)"
fill="#000000" stroke="none">
<path d="M8697 18044 c-1 -1 -69 -4 -152 -8 -82 -4 -163 -8 -180 -10 -16 -3
-70 -7 -120 -10 -49 -3 -99 -8 -110 -10 -11 -2 -58 -7 -105 -11 -47 -4 -87 -8
-90 -10 -3 -1 -36 -6 -73 -10 -37 -3 -76 -8 -85 -10 -9 -1 -53 -8 -97 -15 -44
-6 -91 -13 -105 -16 -14 -2 -41 -7 -60 -10 -19 -3 -48 -7 -65 -10 -16 -3 -84
-16 -150 -29 -66 -13 -136 -27 -155 -30 -19 -3 -82 -18 -140 -32 -58 -13 -112
-26 -120 -28 -103 -21 -457 -122 -655 -185 -263 -86 -649 -233 -858 -329 -37
-17 -70 -31 -72 -31 -8 0 -461 -225 -555 -275 -341 -184 -804 -480 -1110 -709
-124 -94 -395 -308 -410 -326 -3 -3 -30 -25 -60 -50 -30 -25 -57 -47 -60 -51
-3 -3 -30 -27 -60 -54 -335 -292 -823 -805 -1060 -1115 -19 -25 -37 -47 -40
-50 -15 -12 -205 -267 -295 -395 -109 -155 -257 -379 -320 -487 -5 -9 -32 -54
-60 -100 -27 -46 -54 -92 -61 -103 -6 -11 -41 -74 -79 -140 -37 -66 -125 -237
-195 -380 -107 -217 -158 -332 -291 -650 -99 -236 -304 -864 -343 -1050 -1 -5
-5 -19 -9 -30 -3 -11 -8 -31 -11 -45 -3 -14 -12 -52 -20 -86 -8 -34 -17 -72
-20 -85 -3 -13 -12 -58 -21 -99 -9 -41 -19 -84 -21 -95 -2 -11 -11 -55 -20
-98 -8 -42 -17 -89 -20 -102 -2 -14 -8 -51 -14 -83 -9 -55 -13 -80 -25 -152
-3 -19 -7 -46 -10 -60 -2 -14 -7 -47 -10 -75 -3 -27 -7 -61 -10 -75 -7 -40
-21 -166 -30 -260 -3 -36 -8 -83 -10 -105 -11 -108 -19 -230 -30 -470 -10
-218 -5 -715 10 -910 16 -211 17 -229 30 -352 13 -135 16 -160 20 -183 2 -14
7 -50 10 -80 13 -112 50 -341 90 -555 55 -289 143 -635 244 -960 63 -202 144
-438 172 -500 4 -11 37 -92 72 -180 151 -378 325 -736 540 -1110 44 -77 88
-152 98 -167 11 -14 19 -31 19 -37 0 -6 5 -11 10 -11 6 0 10 -4 10 -10 0 -19
234 -369 415 -623 32 -45 119 -159 146 -192 9 -11 62 -76 117 -145 55 -69 112
-138 127 -155 14 -16 49 -57 78 -90 226 -260 552 -590 797 -805 47 -41 87 -77
90 -80 3 -3 32 -28 65 -55 33 -28 74 -63 92 -79 17 -15 102 -83 188 -151 610
-479 1329 -905 2009 -1191 72 -31 145 -61 161 -68 17 -8 86 -35 155 -61 69
-25 134 -50 145 -55 20 -9 251 -89 270 -94 6 -2 17 -6 25 -9 60 -25 646 -187
730 -202 215 -38 421 27 570 180 68 71 132 183 155 272 32 124 22 288 -22 390
-9 21 -17 40 -17 43 -4 24 -81 127 -136 180 -86 83 -178 129 -340 170 -126 31
-349 93 -405 111 -325 106 -400 132 -585 204 -296 116 -792 354 -1010 485 -8
5 -44 26 -80 46 -142 81 -619 397 -677 449 -6 5 -62 48 -123 95 -153 116 -366
294 -524 440 -83 75 -418 413 -471 474 -27 31 -66 74 -85 94 -19 21 -54 60
-77 87 -590 700 -1017 1414 -1346 2250 -52 132 -166 463 -183 530 -1 6 -19 66
-39 135 -20 69 -38 132 -40 140 -2 8 -11 44 -20 80 -9 36 -18 72 -20 80 -2 8
-8 33 -13 55 -8 32 -36 164 -68 320 -12 59 -43 246 -49 300 -4 28 -8 57 -10
65 -2 8 -7 40 -10 70 -3 30 -8 66 -10 80 -5 30 -25 224 -30 295 -23 328 -24
362 -24 635 0 289 5 425 24 650 13 156 16 189 20 220 3 19 7 53 10 75 2 22 11
87 20 145 8 58 17 122 20 144 2 21 7 46 9 55 3 9 8 36 11 61 16 111 108 536
135 625 6 17 28 97 51 179 64 232 227 700 293 841 8 17 21 46 29 65 88 205
233 504 337 690 114 206 338 564 450 719 44 62 264 355 281 376 226 271 270
321 414 473 175 185 340 345 495 481 52 46 111 98 130 115 261 234 905 686
1170 821 19 10 37 21 40 24 20 25 585 302 790 389 190 80 422 167 595 224 111
36 340 105 375 113 8 2 78 19 155 39 77 20 149 38 160 40 11 3 40 9 65 15 25
5 56 12 70 14 14 3 86 17 160 31 74 14 149 27 165 30 57 8 120 18 136 21 9 2
40 6 70 10 30 3 83 10 119 15 36 5 97 12 135 15 39 4 80 8 93 10 12 2 21 1 18
-3 -2 -4 -7 -36 -10 -72 -4 -36 -11 -99 -16 -140 -5 -41 -12 -100 -15 -130 -3
-30 -8 -71 -10 -90 -2 -19 -6 -53 -9 -75 -3 -22 -8 -69 -12 -105 -3 -36 -8
-72 -9 -80 -2 -8 -6 -49 -10 -90 -4 -41 -8 -82 -10 -90 -2 -8 -6 -49 -10 -90
-3 -41 -8 -82 -10 -90 -2 -8 -7 -44 -10 -80 -3 -36 -8 -72 -10 -80 -2 -8 -7
-46 -10 -85 -5 -66 -9 -100 -20 -185 -3 -19 -7 -62 -11 -95 -3 -33 -7 -71 -9
-85 -2 -14 -7 -56 -11 -95 -3 -38 -8 -77 -9 -85 -1 -8 -6 -44 -10 -80 -3 -36
-8 -76 -10 -90 -2 -14 -6 -54 -10 -90 -4 -36 -8 -76 -10 -90 -2 -14 -6 -54
-10 -90 -3 -36 -8 -76 -10 -90 -2 -14 -7 -50 -10 -80 -3 -30 -8 -71 -10 -90
-7 -52 -25 -208 -31 -265 -2 -27 -7 -66 -9 -85 -2 -19 -6 -57 -9 -85 -4 -27
-9 -70 -12 -95 -3 -25 -7 -58 -8 -75 -8 -73 -19 -171 -21 -185 -1 -8 -6 -49
-10 -90 -4 -41 -9 -84 -11 -95 -2 -11 -6 -47 -9 -82 -3 -34 -7 -70 -9 -80 -2
-10 -7 -52 -11 -93 -4 -41 -9 -83 -11 -93 -2 -10 -6 -46 -9 -80 -3 -34 -8 -73
-10 -87 -2 -14 -7 -55 -10 -92 -3 -37 -7 -75 -9 -85 -2 -10 -7 -47 -10 -83 -8
-80 -15 -137 -21 -170 -2 -14 -7 -56 -10 -95 -3 -38 -8 -81 -10 -95 -2 -14 -6
-52 -10 -85 -3 -33 -8 -71 -10 -85 -2 -14 -6 -54 -9 -90 -4 -36 -8 -74 -10
-86 -2 -12 -7 -57 -11 -100 -4 -43 -9 -81 -10 -84 -2 -3 -6 -39 -10 -80 -4
-41 -8 -82 -10 -90 -4 -22 -15 -124 -29 -260 -7 -69 -18 -163 -21 -180 -1 -8
-6 -46 -10 -83 -3 -37 -8 -77 -10 -87 -2 -10 -7 -54 -10 -97 -4 -43 -9 -87
-12 -98 -12 -54 -10 -211 4 -273 15 -68 66 -186 100 -231 45 -61 134 -141 194
-174 120 -67 180 -82 329 -82 82 0 119 5 170 22 150 52 255 131 340 256 59 89
89 182 105 337 3 30 8 71 10 90 5 37 10 78 20 170 3 30 8 73 10 95 3 22 7 63
10 90 3 28 8 66 10 85 7 52 13 108 20 170 3 30 8 71 10 90 3 19 7 60 10 90 6
63 12 116 25 215 5 39 12 97 15 130 4 33 8 74 10 90 2 17 6 57 10 90 3 33 8
71 10 85 2 14 6 52 9 85 4 33 8 76 11 95 19 152 18 138 29 255 4 39 9 81 11
95 2 14 7 54 10 90 4 36 9 72 10 80 2 8 6 49 10 90 4 41 8 82 10 90 2 8 6 49
10 90 4 41 8 82 10 90 1 8 6 46 10 83 3 37 8 76 10 85 1 9 6 46 10 82 3 36 8
78 10 93 2 15 6 60 10 100 4 40 8 79 10 87 2 8 6 44 10 80 3 36 8 76 10 90 4
29 13 104 20 173 8 76 15 139 20 177 2 19 7 58 10 85 3 28 7 66 10 85 2 19 7
60 10 90 3 30 8 71 10 90 3 19 7 60 10 90 3 30 10 89 15 130 5 41 12 102 15
135 4 33 8 74 10 90 2 17 6 55 10 85 3 30 8 71 10 90 11 82 15 119 20 179 3
35 7 67 9 70 2 3 7 43 10 88 4 46 9 91 10 100 2 10 7 50 11 88 4 39 8 81 10
95 2 14 7 52 10 85 3 33 8 71 10 85 3 14 7 55 10 91 3 36 7 74 9 85 2 10 7 48
11 84 3 36 8 76 10 90 2 14 6 54 10 90 4 36 8 76 10 90 2 14 6 50 10 80 3 30
7 71 10 90 3 19 7 58 10 85 3 28 7 66 9 85 2 19 7 64 11 100 4 36 9 72 10 81
2 8 6 48 10 88 3 40 8 80 10 89 1 9 6 48 10 85 3 37 8 76 10 85 4 23 18 172
19 197 1 277 -177 520 -443 607 -58 18 -92 21 -284 23 -119 1 -218 0 -220 -1z"/>
<path d="M10885 17773 c-272 -52 -458 -223 -523 -485 -11 -44 -17 -194 -9
-228 2 -8 7 -33 12 -55 18 -93 89 -217 166 -292 104 -100 182 -140 356 -183
315 -77 814 -238 1035 -333 18 -8 69 -29 113 -47 686 -285 1366 -699 1956
-1191 223 -185 264 -223 524 -484 207 -207 261 -263 345 -361 14 -16 52 -61
86 -99 241 -278 565 -730 744 -1040 151 -260 200 -349 294 -540 98 -200 131
-272 235 -520 5 -11 13 -31 19 -45 42 -96 148 -401 216 -620 64 -209 166 -619
191 -770 3 -19 8 -46 10 -60 6 -27 8 -41 21 -110 4 -25 8 -47 9 -50 1 -3 5
-34 9 -70 5 -36 10 -74 12 -85 2 -10 6 -37 9 -60 3 -22 8 -51 10 -65 2 -14 7
-56 10 -95 4 -38 8 -81 10 -95 39 -281 51 -1040 20 -1350 -2 -19 -6 -73 -10
-120 -3 -47 -10 -123 -16 -170 -6 -47 -12 -103 -15 -125 -6 -57 -34 -242 -49
-330 -6 -37 -82 -422 -90 -455 -14 -64 -91 -351 -111 -420 -65 -215 -188 -575
-229 -665 -7 -16 -28 -66 -45 -110 -92 -233 -336 -730 -433 -882 -15 -24 -27
-44 -27 -47 0 -11 -202 -333 -289 -461 -124 -181 -363 -500 -442 -590 -14 -16
-89 -102 -166 -190 -190 -218 -428 -456 -699 -700 -252 -226 -799 -630 -1064
-784 -30 -18 -77 -46 -105 -63 -44 -27 -95 -56 -281 -158 -385 -214 -1064
-493 -1459 -600 -16 -5 -88 -25 -160 -45 -71 -20 -141 -39 -155 -41 -14 -3
-33 -7 -42 -10 -19 -6 -16 -5 -173 -39 -66 -15 -131 -29 -145 -31 -14 -3 -32
-7 -40 -9 -8 -2 -28 -6 -45 -9 -16 -3 -84 -14 -150 -25 -66 -12 -136 -23 -155
-26 -19 -2 -51 -7 -70 -9 -19 -3 -57 -8 -85 -11 -27 -4 -61 -8 -75 -10 -14 -2
-56 -6 -95 -10 -38 -3 -78 -8 -88 -11 -17 -5 -18 -1 -13 43 3 26 8 73 11 103
3 30 7 64 9 75 2 11 7 52 10 90 4 39 9 81 11 95 2 14 6 52 10 85 3 33 8 74 10
90 2 17 9 73 15 125 6 52 13 115 16 140 2 25 6 61 8 81 9 83 18 165 21 179 2
8 6 49 10 90 4 41 8 77 10 80 1 3 6 41 10 84 4 43 8 86 10 95 1 9 6 47 10 84
3 37 8 76 10 85 1 9 6 49 9 87 4 39 9 81 11 95 2 14 6 52 10 85 6 66 11 104
20 180 11 85 15 118 19 175 3 30 7 69 10 85 3 17 7 57 11 91 3 33 8 71 10 85
2 13 7 53 9 89 3 36 8 74 10 85 2 11 7 52 10 90 4 39 9 81 11 95 8 52 16 125
20 174 3 28 7 67 10 86 2 19 7 62 11 95 3 33 8 74 10 90 2 17 6 53 9 80 11
104 16 151 20 175 2 14 6 52 10 85 10 97 16 148 20 175 2 14 7 57 11 95 3 39
8 77 9 86 2 9 6 52 10 95 4 43 9 81 10 84 2 3 6 39 10 79 4 41 8 82 10 90 1 9
6 50 10 91 4 41 8 82 10 90 1 8 6 49 10 90 4 41 9 84 11 95 2 11 7 49 10 83 3
35 7 73 9 84 2 10 7 49 10 86 4 37 9 81 11 97 3 17 7 50 9 75 2 25 7 68 10 95
14 114 18 149 30 260 3 28 8 66 10 85 2 19 7 58 10 85 2 28 7 68 9 90 3 22 8
67 11 100 4 33 8 69 10 81 2 11 6 52 10 90 4 38 9 78 11 89 2 11 7 72 10 135
11 206 -41 347 -180 485 -136 135 -265 185 -461 180 -91 -2 -123 -7 -185 -30
-229 -84 -391 -287 -414 -520 -3 -33 -8 -71 -11 -85 -2 -14 -7 -56 -10 -93 -4
-37 -8 -76 -10 -85 -1 -9 -6 -51 -10 -92 -4 -41 -9 -82 -10 -90 -2 -8 -6 -44
-10 -80 -3 -36 -8 -76 -10 -90 -2 -14 -6 -54 -10 -90 -4 -36 -8 -76 -10 -90
-2 -14 -6 -54 -10 -90 -4 -36 -8 -76 -10 -90 -2 -14 -7 -53 -10 -87 -3 -34 -7
-70 -9 -80 -2 -10 -7 -49 -11 -88 -3 -38 -8 -83 -11 -100 -2 -16 -6 -50 -8
-75 -2 -25 -7 -67 -11 -95 -10 -78 -23 -192 -30 -255 -6 -66 -26 -245 -30
-270 -2 -14 -7 -56 -11 -95 -3 -38 -8 -78 -9 -87 -2 -9 -7 -48 -10 -85 -4 -37
-8 -79 -10 -93 -2 -14 -7 -52 -10 -85 -3 -33 -8 -71 -10 -85 -2 -14 -7 -56
-11 -95 -3 -38 -8 -77 -9 -85 -2 -8 -6 -44 -10 -80 -3 -36 -8 -76 -10 -90 -2
-14 -6 -54 -10 -90 -4 -36 -8 -76 -10 -90 -2 -14 -7 -50 -10 -80 -3 -30 -7
-71 -10 -90 -2 -19 -9 -80 -15 -135 -11 -98 -15 -133 -25 -217 -3 -24 -7 -65
-10 -93 -3 -27 -8 -66 -10 -85 -2 -19 -7 -60 -10 -90 -3 -30 -8 -71 -10 -90
-3 -19 -7 -55 -10 -80 -2 -25 -7 -61 -10 -80 -2 -19 -7 -63 -10 -97 -3 -34 -7
-70 -9 -80 -2 -10 -7 -52 -11 -93 -4 -41 -8 -82 -10 -90 -2 -8 -6 -49 -10 -90
-4 -41 -8 -82 -10 -90 -1 -8 -6 -44 -10 -80 -3 -36 -8 -76 -10 -90 -2 -14 -7
-54 -10 -90 -3 -36 -8 -72 -10 -80 -2 -8 -6 -51 -10 -95 -3 -44 -8 -87 -10
-95 -2 -8 -6 -46 -10 -83 -3 -37 -8 -76 -10 -85 -1 -9 -6 -51 -10 -92 -4 -41
-9 -83 -11 -94 -2 -10 -6 -46 -9 -80 -2 -33 -7 -70 -9 -81 -2 -11 -7 -51 -10
-90 -4 -38 -9 -83 -11 -100 -3 -16 -7 -51 -10 -77 -6 -60 -13 -122 -25 -218
-5 -41 -11 -102 -15 -135 -3 -33 -7 -76 -10 -95 -20 -156 -19 -146 -30 -258
-4 -40 -13 -116 -20 -170 -19 -143 -14 -271 15 -362 51 -162 181 -311 330
-377 70 -32 90 -38 175 -52 76 -13 574 -3 730 14 22 2 76 7 120 10 121 9 227
19 305 30 14 2 50 6 80 10 30 4 66 8 80 10 14 2 45 7 70 10 50 7 58 8 185 29
156 26 355 64 425 81 8 2 85 19 170 39 148 34 241 58 465 122 127 36 574 188
725 247 372 144 841 367 1176 559 130 74 172 99 264 156 88 54 314 203 459
301 121 82 506 377 621 477 14 12 66 57 115 99 192 165 579 540 709 686 35 39
217 246 285 324 83 95 382 481 423 546 9 14 23 33 30 41 7 7 18 21 23 30 6 9
62 94 126 190 104 155 185 285 291 463 120 203 329 611 430 840 22 50 48 108
58 130 92 203 311 809 355 985 2 8 9 31 15 50 16 51 121 458 135 520 14 65 85
423 89 455 4 23 8 52 11 65 3 13 7 40 10 60 3 20 7 45 9 56 2 12 7 45 11 74 4
29 8 61 10 71 2 10 7 49 10 86 4 37 8 75 10 83 2 8 7 47 10 85 4 39 8 81 10
94 3 14 7 70 10 125 4 56 8 115 10 131 23 169 23 978 0 1230 -2 22 -6 76 -9
120 -4 44 -8 91 -10 105 -3 14 -7 57 -10 95 -4 39 -9 86 -11 105 -2 19 -7 58
-10 85 -6 51 -9 68 -20 145 -4 25 -8 56 -10 70 -2 14 -7 45 -11 70 -3 25 -8
54 -9 65 -2 11 -10 58 -19 105 -9 47 -18 99 -21 115 -3 17 -8 41 -11 55 -3 14
-8 34 -10 45 -2 12 -13 63 -24 115 -11 52 -23 106 -26 120 -11 56 -105 411
-129 490 -14 47 -28 93 -30 103 -6 25 -95 298 -105 322 -5 11 -14 38 -21 60
-6 22 -15 45 -20 51 -5 6 -10 19 -12 30 -5 22 -1 11 -84 224 -184 466 -401
904 -678 1362 -5 9 -23 38 -39 65 -49 82 -282 429 -348 519 -142 195 -475 611
-547 685 -9 9 -47 52 -86 95 -78 89 -507 520 -601 604 -111 101 -198 176 -294
256 -52 43 -97 81 -100 84 -3 3 -50 41 -105 83 -55 43 -107 83 -115 90 -28 22
-184 137 -245 181 -121 86 -434 293 -506 334 -19 11 -74 44 -124 74 -49 30
-119 71 -155 90 -36 20 -99 55 -140 78 -255 142 -783 384 -1080 495 -69 26
-132 49 -140 52 -8 3 -19 7 -25 9 -5 1 -55 19 -110 39 -170 62 -615 194 -745
220 -8 2 -35 8 -60 15 -25 7 -54 14 -65 17 -27 6 -185 11 -210 6z"/>
</g>
</svg>
