<svg id="Layer_1" data-name="Layer 1" xmlns="http://www.w3.org/2000/svg" viewBox="0 0 317.69 115.8"><defs><style>.cls-1{fill:#fff;}.cls-2{fill:#ff3458;}.cls-3{fill:#008eff;}</style></defs><path class="cls-1" d="M385.58,493.59a15,15,0,0,1,6.37-1.35,19.46,19.46,0,0,1,8.55,1.95,27.4,27.4,0,0,1,7.05,4.8L421.05,485a35.52,35.52,0,0,0-13.57-7.87,52.59,52.59,0,0,0-16.43-2.63A43.08,43.08,0,0,0,380.17,476a32.63,32.63,0,0,0-10,4.42,24.16,24.16,0,0,0-7.35,7.73A21.81,21.81,0,0,0,360,499.59a19.29,19.29,0,0,0,1.95,9,20,20,0,0,0,5,6.3,24.59,24.59,0,0,0,7,4.05,58.13,58.13,0,0,0,7.8,2.4A64.62,64.62,0,0,1,393,524.79q3.6,1.65,3.6,5.1a5.13,5.13,0,0,1-2.93,5,13.34,13.34,0,0,1-5.92,1.42,22.5,22.5,0,0,1-10.2-2.4,27.57,27.57,0,0,1-8.1-6l-13.8,14.55a37.62,37.62,0,0,0,14.62,8.63A56.35,56.35,0,0,0,388.2,554a49.31,49.31,0,0,0,11.4-1.35,32.15,32.15,0,0,0,10.28-4.35,22.39,22.39,0,0,0,10.27-19.8,19.35,19.35,0,0,0-2.1-9.3,20.82,20.82,0,0,0-5.55-6.6,30,30,0,0,0-7.73-4.35,56.24,56.24,0,0,0-8.47-2.55,69.83,69.83,0,0,1-10.42-3,4.62,4.62,0,0,1-3.23-4.5A4.72,4.72,0,0,1,385.58,493.59Z" transform="translate(-355.65 -438.24)"/><rect class="cls-1" x="70.2" width="25.05" height="113.4"/><path class="cls-2" d="M528,514a72.62,72.62,0,0,0-1.88-17.62,30.7,30.7,0,0,0-5.92-12.3,23.82,23.82,0,0,0-10.58-7.2,47.87,47.87,0,0,0-16-2.33,52.67,52.67,0,0,0-17.93,3.15,43.06,43.06,0,0,0-15.37,9.45l12.45,13.35a32.12,32.12,0,0,1,8.32-5.4,23.89,23.89,0,0,1,10.13-2.25,16.85,16.85,0,0,1,9.6,2.63q3.9,2.63,3.9,8.17v1.2a159.06,159.06,0,0,0-16.65.9,60.44,60.44,0,0,0-15.53,3.6,29,29,0,0,0-11.4,7.65q-4.43,4.95-4.42,13a22.12,22.12,0,0,0,2.55,11.1,21.11,21.11,0,0,0,6.52,7.2,27.17,27.17,0,0,0,8.78,3.9,38.23,38.23,0,0,0,9.3,1.2,31.61,31.61,0,0,0,9.57-1.43L528,515.07Zm-22.5,7.65q0,7.05-4,11.18t-11.47,4.12a19.76,19.76,0,0,1-3.75-.37,10.42,10.42,0,0,1-3.45-1.28,7.48,7.48,0,0,1-2.48-2.4,6.46,6.46,0,0,1-1-3.6,7,7,0,0,1,2.1-5.32,13.58,13.58,0,0,1,5.32-3.08,33.64,33.64,0,0,1,7.35-1.42q4.13-.37,8.18-.38h3.15Z" transform="translate(-355.65 -438.24)"/><path class="cls-1" d="M671.92,494.34a27.43,27.43,0,0,0-4.65-9.82,24.56,24.56,0,0,0-8.4-7,27.53,27.53,0,0,0-12.83-2.7,24.39,24.39,0,0,0-13.35,3.53,23.43,23.43,0,0,0-8.1,8h-.3V438.24h-24.6v113.4h24.6V511.29A18.26,18.26,0,0,1,627.74,500q3.45-4.58,9.9-4.58a10.28,10.28,0,0,1,5.4,1.28,9.72,9.72,0,0,1,3.38,3.45,14.2,14.2,0,0,1,1.72,5,38.46,38.46,0,0,1,.45,6v40.5h24.75v-46.2A44.47,44.47,0,0,0,671.92,494.34Z" transform="translate(-355.65 -438.24)"/><path class="cls-3" d="M586.35,512.64a30.14,30.14,0,0,0-7.73-4.35,56.59,56.59,0,0,0-8.47-2.55,70.42,70.42,0,0,1-10.43-3,4.63,4.63,0,0,1-3.22-4.5,4.73,4.73,0,0,1,2.92-4.65,15,15,0,0,1,6.38-1.35,19.46,19.46,0,0,1,8.55,1.95,27.57,27.57,0,0,1,7,4.8L594.9,485a35.49,35.49,0,0,0-13.58-7.87,52.59,52.59,0,0,0-15.45-2.61l-30.64,32.79c.17.42.36.84.57,1.24a20,20,0,0,0,5,6.3,24.65,24.65,0,0,0,7,4.05,57.26,57.26,0,0,0,7.8,2.4,64.62,64.62,0,0,1,11.25,3.45q3.6,1.65,3.6,5.1a5.13,5.13,0,0,1-2.93,5,13.41,13.41,0,0,1-5.92,1.42,22.47,22.47,0,0,1-10.2-2.4,27.31,27.31,0,0,1-8.1-6l-13.8,14.55a37.62,37.62,0,0,0,14.62,8.63A56.35,56.35,0,0,0,562.05,554a49.44,49.44,0,0,0,11.4-1.35,32,32,0,0,0,10.27-4.35A22.37,22.37,0,0,0,594,528.54a19.47,19.47,0,0,0-2.1-9.3A21.08,21.08,0,0,0,586.35,512.64Z" transform="translate(-355.65 -438.24)"/></svg>