<?xml version="1.0" encoding="utf-8"?>
<!-- Generator: Adobe Illustrator 26.3.1, SVG Export Plug-In . SVG Version: 6.00 Build 0)  -->
<svg version="1.1" id="Layer_1" xmlns="http://www.w3.org/2000/svg" xmlns:xlink="http://www.w3.org/1999/xlink" x="0px" y="0px"
	 viewBox="0 0 1080 256" style="enable-background:new 0 0 1080 256;" xml:space="preserve">
<style type="text/css">
	.st0{fill:#FFFFFF;}
	.st1{fill:#E22060;}
	.st2{fill:#0C76E4;}
</style>
<path class="st0" d="M106.4,97.1c-14.2,0-27.6,4.2-35.4,15.7h-0.5V33.9H36.1v185.2h31.7v-15.6h0.5c3.8,5.6,8.9,10.2,14.9,13.5
	c6,3.2,12.6,5,19.4,5.2c33.1,0,54.9-25.5,54.9-61.5C157.4,127.4,138.2,97.1,106.4,97.1z M95.4,189.7c-17.2,0-27.6-12.3-27.6-30.1
	c0-17.9,10.3-30.1,27.6-30.1s27.6,12.3,27.6,30.1C123,177.4,112.6,189.7,95.4,189.7L95.4,189.7z"/>
<path class="st0" d="M228.4,97.1c-18.2,0-36.5,6.4-49.2,19.1l18.4,20.1c7.4-8.8,16.8-14.2,28-14.2c11.9,0,22.1,8.3,22.1,21.3
	c-28.7,0-75.6,0.7-75.6,41.9c0,23.9,18.9,36.8,39.8,36.8c14,0,27.8-5.2,35.4-17.9h0.5v14.9h31.7v-60.5
	C279.4,118.8,268.6,97.1,228.4,97.1z M247.7,174.7c0,14.7-12.6,22.3-26.2,22.3c-7.6,0-16.3-4.2-16.3-13c0-16.2,23.4-17.1,34-17.1
	h8.5V174.7z"/>
<path class="st0" d="M359.6,129.4c3.4,0,6.6,0.9,9.6,2.5c3,1.6,5.5,3.8,7.4,6.6l22.8-25.5c-10.8-11.8-26.7-15.9-39.7-15.9
	c-34.5,0-62.1,24.5-62.1,62.5s27.6,62.5,62.1,62.5c13.1,0,28.9-4.2,39.7-15.9l-22.8-25.6c-3.9,4.9-9.4,9.1-17,9.1
	c-17.2,0-27.6-12.3-27.6-30.1C332,141.6,342.4,129.4,359.6,129.4z"/>
<path class="st0" d="M526.7,100h-42.3l-38.2,47V33.9h-34.5v185.2h34.5v-60.3h0.5l37.7,60.3h43.4l-45.5-65.4L526.7,100z"/>
<path class="st1" d="M570.1,134.8c0-5.7,4.5-8.6,9.2-9.5l-22.7-22.5c-12.2,6.1-21,17.3-21,34.4c0,45.3,58.1,29.2,58.1,48.3
	c0,6.4-7.8,8.6-15.6,8.6c-10.3,0-17.9-4.7-24.4-13l-20.9,24.7c11,12,28.3,16.2,43.9,16.2c23.9,0,51.5-8.8,51.5-39.2
	c0-3.4-0.4-6.8-1.2-10.1l-22.8-22.6C588.2,144.3,570.1,144.6,570.1,134.8z"/>
<path class="st2" d="M646.4,191.9l27.4,27.2h7.1V33.9h-34.5V191.9z"/>
<path class="st0" d="M756.4,97.1c-18.2,0-36.5,6.4-49.2,19.1l18.4,20.1c7.4-8.8,16.8-14.2,28-14.2c12,0,22.1,8.3,22.1,21.3
	c-28.7,0-75.6,0.7-75.6,41.9c0,23.9,18.8,36.8,39.8,36.8c14,0,27.8-5.2,35.4-17.9h0.5v14.9h31.7v-60.5
	C807.5,118.8,796.7,97.1,756.4,97.1z M775.7,174.7c0,14.7-12.6,22.3-26.2,22.3c-7.6,0-16.3-4.2-16.3-13c0-16.2,23.4-17.1,34-17.1
	h8.5V174.7z"/>
<path class="st0" d="M859.6,134.8c0-7.1,6.9-9.8,12.6-9.8c3.9-0.1,7.8,0.8,11.2,2.6c3.5,1.7,6.5,4.3,8.8,7.5l21.1-22.3
	C903,101,886.7,97.1,872,97.1c-23.4,0-46.9,12.2-46.9,40.2c0,45.3,58.1,29.2,58.1,48.3c0,6.4-7.8,8.6-15.6,8.6
	c-10.3,0-17.9-4.7-24.4-13l-20.9,24.7c11,12,28.3,16.2,43.9,16.2c23.9,0,51.5-8.8,51.5-39.2C917.7,137.5,859.6,152.4,859.6,134.8z"
	/>
<path class="st0" d="M1001.6,97.1c-16.8,0-28,9.8-31.3,19.1h-0.5V33.9h-34.4v185.2h34.5v-59.3c0-15.4,2.7-30.4,20.7-30.4
	s17.9,17.6,17.9,31.4v58.3h34.5v-65.7C1043,121.6,1036.6,97.1,1001.6,97.1z"/>
</svg>
